name D:\school\WTK\thesis\model\3dpredictsim\Results\MidTarsalJoint\Fal_s1_bCst_PF_Natali2010_ls148_MT_k500_MTP_T10_ig24.mot
datacolumns 128
datarows 4
range 0.00000000 0.03403496
endheader
time	pelvis_tilt	pelvis_list	pelvis_rotation	pelvis_tx	pelvis_ty	pelvis_tz	hip_flexion_l	hip_adduction_l	hip_rotation_l	hip_flexion_r	hip_adduction_r	hip_rotation_r	knee_angle_l	knee_angle_r	ankle_angle_l	ankle_angle_r	subtalar_angle_l	subtalar_angle_r	mtj_angle_l	mtj_angle_r	mtp_angle_l	mtp_angle_r	lumbar_extension	lumbar_bending	lumbar_rotation	arm_flex_l	arm_add_l	arm_rot_l	arm_flex_r	arm_add_r	arm_rot_r	elbow_flex_l	elbow_flex_r	pro_sup_l	pro_sup_r	glut_med1_l/activation	glut_med2_l/activation	glut_med3_l/activation	glut_min1_l/activation	glut_min2_l/activation	glut_min3_l/activation	semimem_l/activation	semiten_l/activation	bifemlh_l/activation	bifemsh_l/activation	sar_l/activation	add_long_l/activation	add_brev_l/activation	add_mag1_l/activation	add_mag2_l/activation	add_mag3_l/activation	tfl_l/activation	pect_l/activation	grac_l/activation	glut_max1_l/activation	glut_max2_l/activation	glut_max3_l/activation	iliacus_l/activation	psoas_l/activation	quad_fem_l/activation	gem_l/activation	peri_l/activation	rect_fem_l/activation	vas_med_l/activation	vas_int_l/activation	vas_lat_l/activation	med_gas_l/activation	lat_gas_l/activation	soleus_l/activation	tib_post_l/activation	flex_dig_l/activation	flex_hal_l/activation	tib_ant_l/activation	per_brev_l/activation	per_long_l/activation	per_tert_l/activation	ext_dig_l/activation	ext_hal_l/activation	ercspn_l/activation	intobl_l/activation	extobl_l/activation	glut_med1_r/activation	glut_med2_r/activation	glut_med3_r/activation	glut_min1_r/activation	glut_min2_r/activation	glut_min3_r/activation	semimem_r/activation	semiten_r/activation	bifemlh_r/activation	bifemsh_r/activation	sar_r/activation	add_long_r/activation	add_brev_r/activation	add_mag1_r/activation	add_mag2_r/activation	add_mag3_r/activation	tfl_r/activation	pect_r/activation	grac_r/activation	glut_max1_r/activation	glut_max2_r/activation	glut_max3_r/activation	iliacus_r/activation	psoas_r/activation	quad_fem_r/activation	gem_r/activation	peri_r/activation	rect_fem_r/activation	vas_med_r/activation	vas_int_r/activation	vas_lat_r/activation	med_gas_r/activation	lat_gas_r/activation	soleus_r/activation	tib_post_r/activation	flex_dig_r/activation	flex_hal_r/activation	tib_ant_r/activation	per_brev_r/activation	per_long_r/activation	per_tert_r/activation	ext_dig_r/activation	ext_hal_r/activation	ercspn_r/activation	intobl_r/activation	extobl_r/activation	
          0.00000000	         -2.92992208	         -2.11272524	          5.33561188	          0.00000000	          0.91890996	         -0.00280966	        -17.21085711	         -0.83262610	          6.45884828	         29.17708244	          3.29744543	         -2.77682396	         -6.35653865	         -9.80233748	         -0.77266042	          6.81919469	          6.56590980	         -5.92133132	          2.95960979	         -0.23387867	         16.79742401	          0.38509572	         -2.08603044	          0.27259567	         -2.06043354	          4.68976916	        -13.45050144	         14.78616544	         -5.16532701	        -13.46177367	          6.60970440	         35.44030222	         16.74901307	         86.51662706	         86.51662706	          0.26272458	          0.10149688	          0.07737167	          0.29258755	          0.19256685	          0.11885048	          0.05000330	          0.05000079	          0.05000043	          0.05572352	          0.11506239	          0.06401492	          0.05000481	          0.05000200	          0.05000409	          0.05000143	          0.32300883	          0.07061939	          0.05000571	          0.05000513	          0.05000313	          0.05000257	          0.45931991	          0.69203431	          0.05000040	          0.05000139	          0.06260660	          0.26688100	          0.05000090	          0.05000092	          0.05000088	          0.29296667	          0.39905597	          0.32685592	          0.29327551	          0.29215381	          0.38095832	          0.05000012	          0.05945360	          0.10633039	          0.05000088	          0.05000020	          0.05000068	          0.05000004	          0.05000012	          0.05000045	          0.05945404	          0.05945405	          0.05000059	          0.05945422	          0.05945416	          0.05824407	          0.18638074	          0.08335815	          0.21265575	          0.07430185	          0.05000054	          0.14769966	          0.26116627	          0.11668025	          0.18129615	          0.11270793	          0.05000033	          0.05015583	          0.14300154	          0.05000233	          0.05001047	          0.16233814	          0.05000116	          0.05000034	          0.18833906	          0.27528700	          0.11982147	          0.05000041	          0.09430606	          0.09265056	          0.08450965	          0.06435576	          0.06197626	          0.05901723	          0.05000008	          0.05000114	          0.05000066	          0.47668317	          0.26613922	          0.17530254	          0.15368604	          0.47749994	          0.23477612	          0.05945421	          0.12199858	          0.10090321	
          0.01134499	         -2.92935212	         -2.20519000	          5.64238909	          0.01701669	          0.91799465	         -0.00260904	        -17.15690438	         -1.14207826	          6.23865104	         28.61111570	          3.65717645	         -2.53405422	         -8.15715665	        -10.25809711	         -1.32513531	          6.16400551	          7.48983822	         -6.25570752	          2.42592607	         -0.28094914	         18.24514941	          0.39393711	         -1.88380300	          0.46546107	         -2.12798824	          4.44829083	        -13.45345002	         15.16684463	         -6.05706768	        -13.45445046	          6.45820311	         36.62306430	         16.34568395	         86.51662706	         86.51662706	          0.22094737	          0.08535736	          0.06506849	          0.24606191	          0.16194584	          0.09995155	          0.05000906	          0.05000226	          0.05000285	          0.05000072	          0.09676619	          0.14940111	          0.05498103	          0.05945553	          0.05942285	          0.05945500	          0.27164572	          0.05950194	          0.05046853	          0.05001984	          0.05001095	          0.05003044	          0.38628091	          0.62694230	          0.05481090	          0.05945547	          0.05945514	          0.22454866	          0.15151154	          0.15277423	          0.13450035	          0.24638033	          0.33559985	          0.28649313	          0.26606409	          0.24569893	          0.32041299	          0.05000011	          0.05000033	          0.11825687	          0.05000031	          0.05000011	          0.05000051	          0.05593490	          0.07069586	          0.05945436	          0.05000004	          0.05000014	          0.09768880	          0.05000015	          0.05000017	          0.05000021	          0.15674344	          0.07010302	          0.17884019	          0.06248690	          0.05956743	          0.12421422	          0.29484777	          0.31504684	          0.20171707	          0.11347647	          0.05000117	          0.07073170	          0.12362058	          0.05003122	          0.06333759	          0.14244989	          0.05000102	          0.07069586	          0.53191681	          0.23151213	          0.10076811	          0.06850947	          0.11057147	          0.10976230	          0.09538017	          0.06568215	          0.07069419	          0.05311217	          0.05945465	          0.05079691	          0.05945454	          0.47898671	          0.30673878	          0.21528574	          0.12924776	          0.40157181	          0.19744316	          0.05000007	          0.10259889	          0.08485801	
          0.02268998	         -2.92451726	         -2.30102974	          5.91875773	          0.03434910	          0.91712631	         -0.00242626	        -17.05153125	         -1.45388573	          6.00598990	         27.93325304	          3.91699259	         -2.26857266	        -10.03966070	        -10.91251987	         -2.02580390	          5.59614463	          8.37414897	         -6.60746283	          1.80139314	         -0.34622636	         19.68546139	          0.35982478	         -1.65984340	          0.66991913	         -2.18328439	          4.13335247	        -13.45131441	         15.48588502	         -6.98386823	        -13.45446227	          6.35229966	         37.76826342	         16.00811643	         86.51662706	         86.51662706	          0.30008211	          0.07178429	          0.05472173	          0.29561308	          0.13619417	          0.08405787	          0.05000300	          0.05000054	          0.05000045	          0.05000066	          0.08137976	          0.12564423	          0.05000103	          0.05000190	          0.05000196	          0.05000219	          0.27348177	          0.05006238	          0.05000163	          0.05000746	          0.05000426	          0.05000217	          0.32485641	          0.60014820	          0.05000048	          0.05000283	          0.05000142	          0.18884215	          0.12742060	          0.12848245	          0.11311408	          0.20720195	          0.28223418	          0.24093618	          0.22375605	          0.20662943	          0.26946280	          0.05000005	          0.08940163	          0.14361535	          0.05000035	          0.05000010	          0.05000032	          0.05000036	          0.05945411	          0.05000029	          0.23004177	          0.22420974	          0.28124252	          0.34578956	          0.21794663	          0.22948804	          0.13182020	          0.06098257	          0.15040194	          0.06915026	          0.05009586	          0.10446234	          0.24796257	          0.26494966	          0.16964142	          0.12682735	          0.05000123	          0.05948741	          0.10396570	          0.05000080	          0.05326630	          0.12998253	          0.05540186	          0.05945424	          0.44733370	          0.19469832	          0.19361698	          0.05761544	          0.09298913	          0.09230864	          0.08021346	          0.05523780	          0.05945293	          0.05000190	          0.05000059	          0.05000165	          0.05000245	          0.52090262	          0.31061116	          0.18105210	          0.33769989	          0.49160042	          0.16604755	          0.05676629	          0.13040350	          0.07136426	
          0.03403496	         -2.91764840	         -2.39287100	          6.15905076	          0.05178324	          0.91633409	         -0.00221795	        -16.85398444	         -1.76003870	          5.77956045	         27.20941575	          4.14834751	         -1.99997355	        -12.05138341	        -11.52759173	         -2.88729537	          5.11841267	          9.22325952	         -6.94689345	          1.13922575	         -0.34209906	         21.02672036	          0.38135115	         -1.43800610	          0.87848902	         -2.22987934	          3.77990882	        -13.45352324	         15.76753942	         -7.89646602	        -13.45527065	          6.29121176	         38.85699476	         15.71084342	         86.51662706	         86.51662706	          0.28537970	          0.06036956	          0.05000073	          0.24860720	          0.11453735	          0.07069155	          0.05000698	          0.05000073	          0.05000061	          0.05000053	          0.06843972	          0.13543445	          0.07411636	          0.05011767	          0.05006122	          0.05001256	          0.23171022	          0.05811206	          0.05000597	          0.05001799	          0.05000973	          0.05000924	          0.27319920	          0.55526697	          0.05000221	          0.05000470	          0.05000079	          0.15881335	          0.14133287	          0.14133280	          0.14133225	          0.17425355	          0.23735448	          0.20262350	          0.18817543	          0.17377237	          0.22661419	          0.05000091	          0.07518633	          0.14487277	          0.05000158	          0.08783485	          0.05000266	          0.06904227	          0.05000006	          0.05000009	          0.32117639	          0.31903008	          0.33815020	          0.29080433	          0.20860450	          0.19396759	          0.11085928	          0.06723076	          0.12648585	          0.05815512	          0.05000244	          0.08785126	          0.20853270	          0.22281888	          0.14266693	          0.15709218	          0.05000134	          0.05002893	          0.08743418	          0.20224512	          0.16006801	          0.15210321	          0.05000022	          0.05000038	          0.37620066	          0.16373840	          0.16282940	          0.05000023	          0.07904770	          0.09085160	          0.06815631	          0.05000011	          0.05000026	          0.05000005	          0.05000034	          0.05000060	          0.05000069	          0.60062822	          0.35682796	          0.19794321	          0.42750695	          0.52818626	          0.28858705	          0.08089815	          0.10966734	          0.06001624	
